<svg xmlns="http://www.w3.org/2000/svg" width="256" height="256" viewBox="0 0 256 256" role="img" aria-label="ESTUN">
  <defs>
    <linearGradient id="estun-teal" x1="0%" y1="0%" x2="100%" y2="100%">
      <stop offset="0%" stop-color="#08b7c7"/>
      <stop offset="100%" stop-color="#0f8ea5"/>
    </linearGradient>
  </defs>
  <rect width="256" height="256" fill="#ffffff"/>
  <g transform="translate(28 18)">
    <path
      d="M104 0C46.6 0 0 46.6 0 104c0 34.5 16.9 65.1 42.9 84 3.3 2.5 8.1.1 8.1-4.1v-20.8c0-24.1 15.9-45.5 39.1-52.9l17.9-5.7c10.5-3.3 17.7-13 17.7-24 0-13.9-11.3-25.2-25.2-25.2h-9.1l6.5-17.5c2.4-6.4-4.1-12.7-10.3-10l-30.8 13.7C66 19.4 84.2 12 104 12c50.7 0 92 41.3 92 92 0 24.5-9.6 46.8-25.3 63.3-2.7 2.8-2.3 7.3.8 9.6l13.6 9.9c2.8 2 6.8 1.7 9.1-.8C214.7 165 220 135.4 220 104 220 46.6 173.4 0 116 0h-12z"
      fill="url(#estun-teal)"
    />
    <path
      d="M39 101c10.5-26.3 32.5-47.2 60.2-56.9-4.4 8-6.7 16.9-6.7 26.1 0 5.1 4.1 9.2 9.2 9.2h8.8c6.7 0 12.1 5.4 12.1 12.1 0 5.3-3.4 9.9-8.5 11.6l-18.1 5.8c-26.3 8.4-44.1 32.7-44.1 60.3v4.8C24.5 154.6 8 130.2 8 102.5 8 96.4 15.9 94.6 19 99.9l4.4 7.6c3.5 6 12.6 4.7 14.3-2.1l1.3-4.4z"
      fill="#ffffff"
    />
    <path d="M54 199h112v14H54z" fill="none"/>
    <text x="54" y="214" font-family="Arial, Helvetica, sans-serif" font-size="38" font-weight="700" fill="#0f8ea5">ESTUN</text>
  </g>
</svg>
